<svg width="512" height="512" viewBox="0 0 512 512" fill="none" xmlns="http://www.w3.org/2000/svg">
<path d="M400 0H112C50.144 0 0 50.144 0 112V400C0 461.856 50.144 512 112 512H400C461.856 512 512 461.856 512 400V112C512 50.144 461.856 0 400 0ZM480 400C480 444.183 444.183 480 400 480H112C67.817 480 32 444.183 32 400V112C32 67.817 67.817 32 112 32H400C444.183 32 480 67.817 480 112V400Z" fill="white"/>
<g clip-path="url(#clip0)">
<path d="M338.799 246.8H265.201V173.199C265.201 168.122 261.078 164 255.999 164C250.922 164 246.8 168.122 246.8 173.199V246.8H173.199C168.122 246.8 164 250.922 164 255.999C164 261.078 168.122 265.201 173.199 265.201H246.8V338.799C246.8 343.878 250.922 348.001 255.999 348.001C261.078 348.001 265.201 343.878 265.201 338.799V265.201H338.799C343.878 265.201 348.001 261.078 348.001 255.999C348.001 250.922 343.878 246.8 338.799 246.8V246.8Z" fill="white"/>
</g>
<defs>
<clipPath id="clip0">
<rect width="184" height="184" fill="white" transform="translate(164 164)"/>
</clipPath>
</defs>
</svg>
