<svg width="406" height="512" viewBox="0 0 406 512" fill="none" xmlns="http://www.w3.org/2000/svg">
<path d="M397.201 407.453C395.696 406.476 384.369 398.541 373.027 374.536C352.198 330.454 347.826 268.356 347.826 224.025C347.826 223.832 347.822 223.641 347.815 223.449C347.588 164.86 312.505 114.354 262.301 91.693V57.036C262.301 25.586 236.757 0 205.359 0H200.64C169.242 0 143.698 25.586 143.698 57.036V91.691C93.3259 114.425 58.1729 165.189 58.1729 224.025C58.1729 268.356 53.8009 330.453 32.9719 374.536C21.6309 398.54 10.3039 406.475 8.79794 407.453C2.45594 410.388 -0.671066 417.168 0.787934 424.039C2.26093 430.978 8.74694 435.762 15.8299 435.762H125.777C126.391 477.903 160.785 512 203 512C245.215 512 279.609 477.903 280.223 435.762H390.17C397.252 435.762 403.739 430.978 405.212 424.039C406.669 417.168 403.543 410.387 397.201 407.453V407.453ZM173.699 57.036C173.699 42.155 185.785 30.049 200.641 30.049H205.36C220.216 30.049 232.302 42.155 232.302 57.036V81.953C222.834 79.996 213.033 78.966 202.996 78.966C192.962 78.966 183.164 79.995 173.7 81.95V57.036H173.699ZM203 481.951C177.327 481.951 156.386 461.334 155.777 435.763H250.222C249.614 461.333 228.673 481.951 203 481.951V481.951ZM263.4 405.712C263.397 405.712 50.0149 405.712 50.0149 405.712C52.6099 401.668 55.2509 397.089 57.8759 391.914C77.9799 352.271 88.1739 295.785 88.1739 224.025C88.1739 160.608 139.683 109.015 202.995 109.015C266.307 109.015 317.816 160.608 317.816 224.075C317.816 224.26 317.819 224.444 317.826 224.628C317.883 296.1 328.076 352.383 348.124 391.914C350.749 397.09 353.391 401.668 355.985 405.712H263.4Z" fill="#9B9B9B"/>
</svg>
