<svg width="512" height="491" viewBox="0 0 512 491" fill="none" xmlns="http://www.w3.org/2000/svg">
<path d="M114.699 490.506C109.1 490.506 103.541 488.759 98.7961 485.328C89.9577 478.923 85.829 467.913 88.2345 457.289L121.109 312.478L9.62069 214.706C1.42558 207.552 -1.70509 196.222 1.6595 185.856C5.0241 175.509 14.1783 168.183 25.0167 167.181L172.529 153.789L230.85 17.3063C235.15 7.27875 244.944 0.802979 255.825 0.802979C266.706 0.802979 276.5 7.27876 280.8 17.2829L339.121 153.789L486.61 167.181C497.472 168.159 506.626 175.509 509.99 185.856C513.355 196.203 510.244 207.552 502.049 214.706L390.561 312.459L423.435 457.265C425.844 467.913 421.712 478.923 412.877 485.309C404.062 491.695 392.307 492.186 383.025 486.607L255.825 410.594L128.625 486.65C124.325 489.204 119.533 490.506 114.699 490.506ZM241.899 185.388C246.733 185.388 340.228 294.303 269.751 381.7L241.899 185.388L358.771 316.822C241.899 312.459 248.308 173.762 255.825 167.181L472.644 198.035L333.37 185.388C323.343 184.472 259.743 263.543 255.825 254.303V40.1294V185.856C251.95 195.033 251.903 265.349 241.899 266.265L38.9859 197.992L255.825 254.303C263.365 260.904 155.09 307.051 152.856 316.802L241.899 185.388V381.7C207 399 237.064 185.388 241.899 185.388ZM171.402 156.428C171.402 156.428 171.402 156.452 171.379 156.471L171.402 156.428ZM340.205 156.366L340.228 156.409C340.228 156.385 340.228 156.385 340.205 156.366Z" fill="#778BDD"/>
</svg>
