<svg width="512" height="512" viewBox="0 0 512 512" fill="none" xmlns="http://www.w3.org/2000/svg">
<path d="M400 0H112C50.144 0 0 50.144 0 112V400C0 461.856 50.144 512 112 512H400C461.856 512 512 461.856 512 400V112C512 50.144 461.856 0 400 0ZM480 400C480 444.183 444.183 480 400 480H112C67.817 480 32 444.183 32 400V112C32 67.817 67.817 32 112 32H400C444.183 32 480 67.817 480 112V400Z" fill="#8795A0"/>
<path d="M160 112H128C119.163 112 112 119.163 112 128V160C112 168.837 119.163 176 128 176H160C168.837 176 176 168.837 176 160V128C176 119.163 168.837 112 160 112Z" fill="#8795A0"/>
<path d="M160 224H128C119.163 224 112 231.163 112 240V272C112 280.837 119.163 288 128 288H160C168.837 288 176 280.837 176 272V240C176 231.163 168.837 224 160 224Z" fill="#8795A0"/>
<path d="M160 336H128C119.163 336 112 343.163 112 352V384C112 392.837 119.163 400 128 400H160C168.837 400 176 392.837 176 384V352C176 343.163 168.837 336 160 336Z" fill="#8795A0"/>
<path d="M400 128H208V160H400V128Z" fill="#8795A0"/>
<path d="M400 240H208V272H400V240Z" fill="#8795A0"/>
<path d="M400 352H208V384H400V352Z" fill="#8795A0"/>
</svg>
