<svg width="511" height="511" viewBox="0 0 511 511" fill="none" xmlns="http://www.w3.org/2000/svg">
<path d="M497.228 222.261C497.212 222.249 497.2 222.234 497.189 222.222L288.741 13.7817C279.856 4.89278 268.043 0 255.478 0C242.912 0 231.1 4.89278 222.211 13.7817L13.8718 222.117C13.8017 222.187 13.7276 222.261 13.6613 222.331C-4.58426 240.682 -4.55307 270.456 13.751 288.76C22.1135 297.126 33.1545 301.968 44.9634 302.479C45.4468 302.526 45.9303 302.549 46.4176 302.549H54.7217V455.945C54.7217 486.303 79.4234 511.001 109.782 511.001H191.333C199.602 511.001 206.304 504.295 206.304 496.03V375.765C206.304 361.914 217.575 350.647 231.427 350.647H279.528C293.38 350.647 304.647 361.914 304.647 375.765V496.03C304.647 504.295 311.349 511.001 319.618 511.001H401.169C431.532 511.001 456.23 486.303 456.23 455.945V302.549H463.933C476.495 302.549 488.308 297.656 497.2 288.764C515.524 270.432 515.532 240.604 497.228 222.261V222.261ZM476.027 267.594C472.795 270.826 468.499 272.608 463.933 272.608H441.259C432.99 272.608 426.288 279.309 426.288 287.578V455.945C426.288 469.793 415.021 481.06 401.169 481.06H334.589V375.765C334.589 345.407 309.891 320.705 279.528 320.705H231.427C201.064 320.705 176.363 345.407 176.363 375.765V481.06H109.782C95.9341 481.06 84.6631 469.793 84.6631 455.945V287.578C84.6631 279.309 77.9614 272.608 69.6924 272.608H47.4078C47.1739 272.592 46.9439 272.58 46.7061 272.576C42.2461 272.499 38.0628 270.729 34.9283 267.59C28.2617 260.923 28.2617 250.074 34.9283 243.403C34.9322 243.403 34.9322 243.399 34.9361 243.395L34.9478 243.384L243.388 34.9512C246.616 31.7192 250.908 29.9415 255.478 29.9415C260.043 29.9415 264.335 31.7192 267.567 34.9512L475.961 243.341C475.992 243.372 476.027 243.403 476.058 243.434C482.69 250.113 482.678 260.939 476.027 267.594V267.594Z" fill="#778BDD"/>
</svg>
