<svg width="61" height="46" viewBox="0 0 61 46" fill="none" xmlns="http://www.w3.org/2000/svg">
<path d="M57.124 44.459H16.92C15.263 44.459 13.92 43.116 13.92 41.459C13.92 39.802 15.263 38.459 16.92 38.459H57.123C58.78 38.459 60.123 39.802 60.123 41.459C60.123 43.116 58.781 44.459 57.124 44.459Z" fill="#778BDD"/>
<path d="M57.124 25.6281H16.92C15.263 25.6281 13.92 24.2851 13.92 22.6281C13.92 20.9711 15.263 19.6281 16.92 19.6281H57.123C58.78 19.6281 60.123 20.9711 60.123 22.6281C60.124 24.2851 58.781 25.6281 57.124 25.6281Z" fill="#778BDD"/>
<path d="M57.124 6.797H16.92C15.263 6.797 13.92 5.454 13.92 3.797C13.92 2.14 15.263 0.796997 16.92 0.796997H57.123C58.78 0.796997 60.123 2.14 60.123 3.797C60.123 5.454 58.781 6.797 57.124 6.797Z" fill="#778BDD"/>
<path d="M4.029 8.058C6.25416 8.058 8.058 6.25416 8.058 4.029C8.058 1.80384 6.25416 0 4.029 0C1.80384 0 0 1.80384 0 4.029C0 6.25416 1.80384 8.058 4.029 8.058Z" fill="#778BDD"/>
<path d="M4.029 26.657C6.25416 26.657 8.058 24.8532 8.058 22.628C8.058 20.4028 6.25416 18.599 4.029 18.599C1.80384 18.599 0 20.4028 0 22.628C0 24.8532 1.80384 26.657 4.029 26.657Z" fill="#778BDD"/>
<path d="M4.029 45.256C6.25416 45.256 8.058 43.4522 8.058 41.227C8.058 39.0018 6.25416 37.198 4.029 37.198C1.80384 37.198 0 39.0018 0 41.227C0 43.4522 1.80384 45.256 4.029 45.256Z" fill="#778BDD"/>
</svg>
