<svg width="466" height="512" viewBox="0 0 466 512" fill="none" xmlns="http://www.w3.org/2000/svg">
<path d="M442.45 279.263C429.58 279.263 419.177 289.689 419.177 302.536C419.177 341.029 387.852 372.354 349.359 372.354H163.177V302.536C163.177 293.599 158.034 285.431 150.005 281.567C141.883 277.704 132.364 278.774 125.359 284.36L8.99507 377.451C3.47907 381.873 0.268066 388.552 0.268066 395.627C0.268066 402.702 3.48007 409.381 8.99507 413.803L125.359 506.894C129.571 510.245 134.715 511.991 139.904 511.991C143.325 511.991 146.793 511.223 150.004 509.687C158.033 505.824 163.176 497.655 163.176 488.718V418.9H349.358C413.521 418.9 465.722 366.699 465.722 302.536C465.723 289.689 455.32 279.263 442.45 279.263Z" fill="#9B9B9B"/>
<path d="M23.5411 232.718C36.4111 232.718 46.8141 222.292 46.8141 209.445C46.8141 170.952 78.1391 139.627 116.632 139.627H302.814V209.445C302.814 218.382 307.957 226.55 315.986 230.414C319.221 231.95 322.665 232.718 326.086 232.718C331.276 232.718 336.419 230.973 340.631 227.621L456.995 134.53C462.511 130.108 465.722 123.429 465.722 116.354C465.722 109.279 462.51 102.6 456.995 98.178L340.632 5.08696C333.65 -0.498039 324.015 -1.56904 315.986 2.29396C307.957 6.15696 302.814 14.326 302.814 23.263V93.081H116.632C52.4691 93.081 0.268066 145.282 0.268066 209.445C0.268066 222.292 10.6711 232.718 23.5411 232.718Z" fill="#9B9B9B"/>
</svg>
