<svg width="511" height="490" viewBox="0 0 511 490" fill="none" xmlns="http://www.w3.org/2000/svg">
<path d="M114.373 489.703C108.774 489.703 103.215 487.956 98.4698 484.525C89.6314 478.12 85.5026 467.11 87.9081 456.486L120.782 311.675L9.29434 213.903C1.09923 206.749 -2.03144 195.419 1.33315 185.053C4.69775 174.706 13.8519 167.38 24.6904 166.378L172.202 152.986L230.523 16.5033C234.824 6.47578 244.617 0 255.499 0C266.38 0 276.173 6.47578 280.474 16.4799L338.795 152.986L486.283 166.378C497.145 167.356 506.299 174.706 509.664 185.053C513.029 195.4 509.917 206.749 501.722 213.903L390.234 311.656L423.108 456.462C425.518 467.11 421.385 478.12 412.551 484.506C403.736 490.892 391.981 491.383 382.698 485.804L255.499 409.791L128.299 485.847C123.999 488.401 119.207 489.703 114.373 489.703ZM255.499 377.045C260.333 377.045 265.121 378.344 269.425 380.897L389.47 452.696L358.444 316.019C356.23 306.291 359.532 296.135 367.049 289.554L472.318 197.232L333.044 184.585C323.017 183.669 314.393 177.365 310.474 168.125L255.499 39.3264L200.456 168.144C196.581 177.322 187.957 183.626 177.953 184.542L38.6595 197.189L143.925 289.511C151.465 296.112 154.763 306.248 152.529 315.999L121.527 452.673L241.572 380.897C245.873 378.344 250.664 377.045 255.499 377.045ZM171.076 155.625C171.076 155.625 171.076 155.649 171.052 155.668L171.076 155.625ZM339.879 155.563L339.902 155.606C339.902 155.582 339.902 155.582 339.879 155.563Z" fill="#8E8E8E"/>
</svg>
