<svg width="411" height="483" viewBox="0 0 411 483" fill="none" xmlns="http://www.w3.org/2000/svg">
<path d="M203.627 260.2C204.127 260.2 204.627 260.2 205.227 260.2C205.427 260.2 205.627 260.2 205.827 260.2C206.127 260.2 206.527 260.2 206.827 260.2C236.127 259.7 259.827 249.4 277.327 229.7C315.827 186.3 309.427 111.9 308.727 104.8C306.227 51.5 281.027 26 260.227 14.1C244.727 5.2 226.627 0.4 206.427 0H205.727C205.627 0 205.427 0 205.327 0H204.727C193.627 0 171.827 1.8 150.927 13.7C129.927 25.6 104.327 51.1 101.827 104.8C101.127 111.9 94.7272 186.3 133.227 229.7C150.627 249.4 174.327 259.7 203.627 260.2ZM128.527 107.3C128.527 107 128.627 106.7 128.627 106.5C131.927 34.8 182.827 27.1 204.627 27.1H205.027C205.227 27.1 205.527 27.1 205.827 27.1C232.827 27.7 278.727 38.7 281.827 106.5C281.827 106.8 281.827 107.1 281.927 107.3C282.027 108 289.027 176 257.227 211.8C244.627 226 227.827 233 205.727 233.2C205.527 233.2 205.427 233.2 205.227 233.2C205.027 233.2 204.927 233.2 204.727 233.2C182.727 233 165.827 226 153.327 211.8C121.627 176.2 128.427 107.9 128.527 107.3Z" fill="#9AD2BA"/>
<path d="M410.727 383.6C410.727 383.5 410.727 383.4 410.727 383.3C410.727 382.5 410.627 381.7 410.627 380.8C410.027 361 408.727 314.7 365.327 299.9C365.027 299.8 364.627 299.7 364.327 299.6C319.227 288.1 281.727 262.1 281.327 261.8C275.227 257.5 266.827 259 262.527 265.1C258.227 271.2 259.727 279.6 265.827 283.9C267.527 285.1 307.327 312.8 357.127 325.6C380.427 333.9 383.027 358.8 383.727 381.6C383.727 382.5 383.727 383.3 383.827 384.1C383.927 393.1 383.327 407 381.727 415C365.527 424.2 302.027 456 205.427 456C109.227 456 45.3272 424.1 29.0272 414.9C27.4272 406.9 26.7272 393 26.9272 384C26.9272 383.2 27.0272 382.4 27.0272 381.5C27.7272 358.7 30.3272 333.8 53.6272 325.5C103.427 312.7 143.227 284.9 144.927 283.8C151.027 279.5 152.527 271.1 148.227 265C143.927 258.9 135.527 257.4 129.427 261.7C129.027 262 91.7272 288 46.4272 299.5C46.0272 299.6 45.7272 299.7 45.4272 299.8C2.02722 314.7 0.727219 361 0.127219 380.7C0.127219 381.6 0.127216 382.4 0.0272164 383.2C0.0272164 383.3 0.0272164 383.4 0.0272164 383.5C-0.0727836 388.7 -0.172781 415.4 5.12722 428.8C6.12722 431.4 7.92722 433.6 10.3272 435.1C13.3272 437.1 85.2272 482.9 205.527 482.9C325.827 482.9 397.727 437 400.727 435.1C403.027 433.6 404.927 431.4 405.927 428.8C410.927 415.5 410.827 388.8 410.727 383.6Z" fill="#9AD2BA"/>
</svg>
